<svg width="61" height="22" fill="none" xmlns="http://www.w3.org/2000/svg"><path d="M59.763 11.57h-.215a.79.79 0 0 1-.176.22c-.062.052-.172.076-.33.076-.1 0-.254-.018-.456-.055-.079-.018-.175-.042-.29-.072a2.35 2.35 0 0 0-.277-.059 3.865 3.865 0 0 0-.81-.083c-.604 0-1.141.153-1.612.46-.47.307-.833.703-1.089 1.188a3.118 3.118 0 0 0-.385 1.475c0 .258.034.502.1.73.067.229.181.457.343.685.161.228.386.467.674.717.288.248.638.508 1.049.774.78.499 1.31.849 1.591 1.05.281.2.493.404.634.608.14.206.21.446.21.724 0 .41-.167.759-.5 1.045-.334.286-.758.429-1.27.429a2.63 2.63 0 0 1-2.052-1.038c-.288-.364-.476-.819-.564-1.363h-.269l-.062 2.878h.242c.097-.226.253-.339.47-.339.088 0 .188.011.301.035.113.023.207.044.28.062.66.19 1.24.285 1.745.285.488 0 .941-.07 1.359-.212a3.277 3.277 0 0 0 1.08-.594c.302-.257.534-.559.698-.908.164-.348.246-.734.246-1.159 0-.461-.096-.875-.29-1.24a3.523 3.523 0 0 0-.845-1.017c-.37-.313-.843-.653-1.425-1.018a14.952 14.952 0 0 0-.852-.553c-.415-.268-.724-.513-.927-.734-.203-.221-.331-.408-.384-.56a1.406 1.406 0 0 1-.08-.464 1.305 1.305 0 0 1 .758-1.208 1.74 1.74 0 0 1 .771-.169c.572 0 1.058.184 1.46.55.401.367.693.869.879 1.506h.27v-2.653Zm-10.064.123L46.966 18.4l-2.947-6.707h-3.682v.2c.743.116 1.329.517 1.758 1.205l-.685 6.45c-.079.753-.23 1.29-.453 1.614-.225.322-.555.498-.993.525v.2h3.46v-.2a2.137 2.137 0 0 1-.717-.163c-.205-.09-.37-.283-.495-.58-.125-.298-.164-.726-.117-1.285l.45-5.683h.027l3.432 7.911h.242l3.328-8.182h.027l.499 6.493c.045.587-.043.979-.267 1.177-.223.198-.532.301-.923.31v.201h4.677v-.2c-.305-.07-.528-.143-.668-.222-.141-.078-.26-.232-.353-.46-.095-.229-.163-.583-.204-1.063l-.56-6.845c-.033-.342.008-.6.123-.772a.769.769 0 0 1 .432-.332c.174-.048.394-.081.661-.1v-.2h-3.32v.001Zm-15.624 2.27 1.314 3.433H32.85l1.224-3.432Zm.138-2.367-2.892 8.181c-.259.711-.527 1.199-.803 1.464-.277.265-.574.415-.893.447v.2h3.058v-.2a1.794 1.794 0 0 1-.657-.218c-.185-.108-.276-.32-.276-.633 0-.203.046-.429.137-.678l.727-2.083h3.044l.852 2.166c.008.028.031.102.065.225.035.122.063.238.083.346.02.108.031.192.031.253 0 .378-.33.586-.99.622v.2h4.83v-.2a2.28 2.28 0 0 1-.92-.342c-.25-.168-.466-.48-.65-.931l-3.425-8.818h-1.321Zm-12.68.097v.2h.07c.517 0 .846.13.989.388.143.259.214.574.214.948v7.143c0 .391-.078.709-.235.951-.157.243-.503.364-1.038.364v.2h7.68l.152-2.45h-.2c-.138.494-.294.876-.467 1.146-.174.27-.392.46-.658.571-.266.111-.608.166-1.027.166h-.622c-.876 0-1.315-.425-1.315-1.274v-2.934h1.64c.369 0 .687.075.954.228.267.152.436.454.505.906h.2v-2.99h-.2c-.036.425-.167.745-.39.963-.224.216-.58.325-1.07.325h-1.64V12.26h2.056c.36 0 .643.066.852.198.207.13.367.322.48.57.114.25.216.566.309.95h.2l-.083-2.285h-7.355Zm-4.992.81c.344.162.601.396.774.703.174.307.26.681.26 1.125 0 .715-.2 1.264-.602 1.644-.4.38-.999.57-1.792.57h-.464v-4.284h.554c.503 0 .926.081 1.27.243Zm-.484 4.887c.265.184.522.484.77.9.25.415.646 1.156 1.19 2.222.172.341.416.8.734 1.377h3.287v-.2a1.566 1.566 0 0 1-.436-.129c-.134-.062-.288-.191-.463-.387a5.162 5.162 0 0 1-.575-.827l-1.218-2.07c-.447-.76-.909-1.292-1.383-1.593.363-.11.694-.269.992-.476.298-.208.534-.473.71-.797.175-.323.262-.692.262-1.107 0-.513-.139-.967-.416-1.365-.277-.396-.678-.703-1.203-.92-.526-.217-1.138-.326-1.834-.326h-5.286v.2c.442 0 .763.101.961.302.199.2.298.546.298 1.035v7.143c0 .396-.077.715-.229.954-.152.24-.496.36-1.031.36v.201h4.788V21.7a2.557 2.557 0 0 1-.664-.093c-.167-.053-.307-.175-.422-.367-.116-.192-.174-.481-.174-.87v-3.26h.326c.412.003.75.095 1.016.28ZM4.51 12.261c.817 0 1.51.143 2.08.43.569.286 1.022.662 1.355 1.128.335.466.576.974.724 1.522.147.55.222 1.101.222 1.654 0 .535-.063 1.055-.187 1.557a4.562 4.562 0 0 1-.592 1.384c-.27.42-.613.75-1.027.99a2.77 2.77 0 0 1-.899.316c-.32.052-.679.08-1.08.08-.447 0-.782-.05-1.003-.15a.818.818 0 0 1-.453-.467c-.08-.213-.12-.499-.12-.86v-7.467c.362-.078.69-.117.98-.117ZM0 11.894h.076c.516 0 .844.13.982.392.139.26.208.58.208.959v7.13c0 .401-.078.72-.231.958-.155.238-.5.356-1.035.356v.2h5.84c.867 0 1.647-.128 2.338-.383.692-.256 1.268-.613 1.73-1.069a4.45 4.45 0 0 0 1.034-1.571c.228-.59.343-1.228.343-1.91 0-.701-.123-1.367-.367-1.998a4.936 4.936 0 0 0-1.094-1.685c-.485-.493-1.088-.88-1.809-1.16-.722-.278-1.537-.418-2.446-.418H0v.2ZM47.392 0h-.2l-.056 2.395h.214c.194-.674.392-1.114.596-1.319.203-.205.466-.308.789-.308h1.902v8.036c0 .397-.078.715-.235.955-.156.24-.5.36-1.031.36v.2h4.795v-.2c-.356 0-.625-.06-.81-.177a.844.844 0 0 1-.367-.457 2.237 2.237 0 0 1-.09-.682V.77h1.903c.35 0 .647.096.89.287.24.19.413.638.514 1.34h.195L56.345 0h-.2c-.217.083-.49.125-.817.125h-7.12c-.327 0-.6-.042-.816-.125Zm-8.149.125v.2h.07c.516 0 .847.13.99.389.142.258.214.575.214.947v7.144c0 .392-.079.71-.235.951-.157.243-.503.364-1.038.364v.2h7.68l.153-2.45h-.2c-.14.493-.296.876-.468 1.145a1.43 1.43 0 0 1-.657.57c-.266.111-.609.167-1.028.167H44.1c-.877 0-1.315-.425-1.315-1.273V5.544h1.64c.369 0 .688.076.955.229.268.152.436.454.505.907h.201V3.69h-.201c-.037.425-.168.746-.392.962-.223.217-.58.326-1.069.326h-1.64V.692h2.056c.36 0 .644.066.851.197.207.132.368.322.48.572.114.249.217.565.308.948h.2L46.599.125h-7.355Zm-8.403 0v.2h.07c.516 0 .846.13.988.389.144.258.214.575.214.947v7.144c0 .392-.078.71-.235.951-.157.243-.503.364-1.038.364v.2h7.68l.153-2.45h-.2c-.14.493-.295.876-.468 1.145a1.43 1.43 0 0 1-.657.57c-.266.111-.608.167-1.028.167h-.622c-.877 0-1.315-.425-1.315-1.273V5.544h1.64c.369 0 .687.076.955.229.268.152.436.454.505.907h.2V3.69h-.2c-.038.425-.168.746-.391.962-.224.217-.58.326-1.07.326h-1.639V.692h2.056c.359 0 .643.066.85.197.209.132.368.322.482.572.112.249.215.565.307.948h.2L38.195.125H30.84Zm-5.418.81c.343.16.602.395.775.702.173.306.26.682.26 1.124 0 .716-.2 1.264-.602 1.645-.401.38-1 .57-1.792.57H23.6V.693h.553c.502 0 .925.081 1.27.242Zm-.484 4.886c.265.184.523.485.771.9.25.415.646 1.156 1.19 2.222.171.341.416.8.733 1.377h3.287v-.2a1.561 1.561 0 0 1-.435-.13c-.134-.061-.289-.191-.464-.386a5.097 5.097 0 0 1-.574-.828l-1.218-2.069c-.448-.761-.91-1.292-1.384-1.592.365-.11.695-.269.992-.477.299-.207.535-.473.71-.796.175-.323.263-.692.263-1.108 0-.512-.139-.966-.415-1.363-.276-.397-.678-.703-1.204-.92-.526-.217-1.137-.326-1.834-.326H20.07v.2c.444 0 .764.101.962.302.198.201.297.545.297 1.034v7.144c0 .397-.076.715-.228.955-.153.24-.496.36-1.03.36v.2h4.787v-.187a2.548 2.548 0 0 1-.664-.094c-.166-.052-.307-.175-.422-.367-.116-.19-.173-.48-.173-.868v-3.26h.325c.411 0 .75.093 1.014.277ZM11.031 0h-.2l-.056 2.395h.214c.194-.674.391-1.114.595-1.319.203-.205.466-.308.789-.308h1.902v8.036c0 .397-.078.715-.235.955-.157.24-.5.36-1.031.36v.2h4.795v-.2c-.356 0-.625-.06-.81-.177a.84.84 0 0 1-.367-.457 2.237 2.237 0 0 1-.09-.682V.77h1.903c.35 0 .647.096.89.287.242.19.413.638.515 1.34h.194L19.983 0h-.2c-.217.083-.488.125-.817.125h-7.12c-.326 0-.599-.042-.815-.125ZM9.925 0h-.214a.805.805 0 0 1-.175.222c-.062.05-.173.076-.33.076-.101 0-.253-.019-.455-.055A16.288 16.288 0 0 1 8.459.17a2.777 2.777 0 0 0-.277-.06 3.876 3.876 0 0 0-.809-.083c-.605 0-1.142.154-1.612.46a3.17 3.17 0 0 0-1.09 1.188 3.118 3.118 0 0 0-.384 1.475c0 .258.033.502.1.73.067.229.182.457.343.686.162.227.386.467.675.716.288.249.638.507 1.048.775.779.498 1.31.848 1.592 1.05.281.2.492.403.633.608.14.206.211.447.211.724 0 .41-.167.759-.502 1.045-.334.286-.758.429-1.27.429a2.622 2.622 0 0 1-2.051-1.038c-.289-.365-.477-.82-.564-1.364h-.27l-.062 2.88h.242c.097-.226.254-.34.47-.34.088 0 .189.011.302.034.113.023.206.044.28.063.66.19 1.24.284 1.743.284.49 0 .942-.07 1.36-.212.417-.14.777-.339 1.079-.594a2.68 2.68 0 0 0 .7-.908c.163-.348.245-.734.245-1.159 0-.461-.097-.875-.292-1.24a3.495 3.495 0 0 0-.844-1.017A12.46 12.46 0 0 0 8.03 4.284a14.618 14.618 0 0 0-.852-.553c-.415-.268-.724-.513-.926-.734-.203-.222-.332-.409-.384-.56a1.39 1.39 0 0 1-.08-.465A1.304 1.304 0 0 1 6.546.764c.232-.112.489-.169.77-.169.573 0 1.06.184 1.46.55.402.368.695.87.88 1.507h.27V0Z" fill="#fff" stroke="#fff"/></svg>